<mxfile host="app.diagrams.net" agent="Mozilla/5.0 (Windows NT 10.0; Win64; x64) AppleWebKit/537.36 (KHTML, like Gecko) Chrome/127.0.0.0 Safari/537.36" version="24.7.7">
  <diagram name="PÃ¡gina-1" id="u3xTMCCBgbUXSzS5VKE8">
    <mxGraphModel dx="1434" dy="772" grid="1" gridSize="10" guides="1" tooltips="1" connect="1" arrows="1" fold="1" page="1" pageScale="1" pageWidth="827" pageHeight="1169" math="0" shadow="0">
      <root>
        <mxCell id="0" />
        <mxCell id="1" parent="0" />
        <mxCell id="KIZXjqIbr8AVXTGDCBiZ-7" value="" style="edgeStyle=orthogonalEdgeStyle;rounded=0;orthogonalLoop=1;jettySize=auto;html=1;" edge="1" parent="1" source="KIZXjqIbr8AVXTGDCBiZ-1" target="KIZXjqIbr8AVXTGDCBiZ-3">
          <mxGeometry relative="1" as="geometry" />
        </mxCell>
        <mxCell id="KIZXjqIbr8AVXTGDCBiZ-1" value="&lt;font style=&quot;vertical-align: inherit;&quot;&gt;&lt;font style=&quot;vertical-align: inherit;&quot;&gt;INICIO&lt;/font&gt;&lt;/font&gt;" style="ellipse;whiteSpace=wrap;html=1;fillColor=#d5e8d4;strokeColor=#82b366;" vertex="1" parent="1">
          <mxGeometry x="320" y="20" width="100" height="60" as="geometry" />
        </mxCell>
        <mxCell id="KIZXjqIbr8AVXTGDCBiZ-2" value="&lt;font style=&quot;vertical-align: inherit;&quot;&gt;&lt;font style=&quot;vertical-align: inherit;&quot;&gt;&lt;font style=&quot;vertical-align: inherit;&quot;&gt;&lt;font style=&quot;vertical-align: inherit;&quot;&gt;FIN&lt;/font&gt;&lt;/font&gt;&lt;/font&gt;&lt;/font&gt;" style="ellipse;whiteSpace=wrap;html=1;fillColor=#f8cecc;strokeColor=#b85450;" vertex="1" parent="1">
          <mxGeometry x="320" y="620" width="100" height="60" as="geometry" />
        </mxCell>
        <mxCell id="KIZXjqIbr8AVXTGDCBiZ-8" value="" style="edgeStyle=orthogonalEdgeStyle;rounded=0;orthogonalLoop=1;jettySize=auto;html=1;" edge="1" parent="1" source="KIZXjqIbr8AVXTGDCBiZ-3" target="KIZXjqIbr8AVXTGDCBiZ-4">
          <mxGeometry relative="1" as="geometry" />
        </mxCell>
        <mxCell id="KIZXjqIbr8AVXTGDCBiZ-3" value="&lt;font style=&quot;vertical-align: inherit;&quot;&gt;&lt;font style=&quot;vertical-align: inherit;&quot;&gt;IGRESE LAS HORAS TRABAJADAS&lt;/font&gt;&lt;/font&gt;" style="shape=parallelogram;perimeter=parallelogramPerimeter;whiteSpace=wrap;html=1;fixedSize=1;fillColor=#fff2cc;strokeColor=#d6b656;" vertex="1" parent="1">
          <mxGeometry x="240" y="120" width="260" height="60" as="geometry" />
        </mxCell>
        <mxCell id="KIZXjqIbr8AVXTGDCBiZ-9" value="" style="edgeStyle=orthogonalEdgeStyle;rounded=0;orthogonalLoop=1;jettySize=auto;html=1;" edge="1" parent="1" source="KIZXjqIbr8AVXTGDCBiZ-4" target="KIZXjqIbr8AVXTGDCBiZ-5">
          <mxGeometry relative="1" as="geometry" />
        </mxCell>
        <mxCell id="KIZXjqIbr8AVXTGDCBiZ-4" value="&lt;font style=&quot;vertical-align: inherit;&quot;&gt;&lt;font style=&quot;vertical-align: inherit;&quot;&gt;&lt;font style=&quot;vertical-align: inherit;&quot;&gt;&lt;font style=&quot;vertical-align: inherit;&quot;&gt;INGRESE EL PAGO POR HORA&lt;/font&gt;&lt;/font&gt;&lt;/font&gt;&lt;/font&gt;" style="shape=parallelogram;perimeter=parallelogramPerimeter;whiteSpace=wrap;html=1;fixedSize=1;fillColor=#fff2cc;strokeColor=#d6b656;" vertex="1" parent="1">
          <mxGeometry x="240" y="230" width="260" height="60" as="geometry" />
        </mxCell>
        <mxCell id="KIZXjqIbr8AVXTGDCBiZ-10" value="" style="edgeStyle=orthogonalEdgeStyle;rounded=0;orthogonalLoop=1;jettySize=auto;html=1;" edge="1" parent="1" source="KIZXjqIbr8AVXTGDCBiZ-5" target="KIZXjqIbr8AVXTGDCBiZ-6">
          <mxGeometry relative="1" as="geometry" />
        </mxCell>
        <mxCell id="KIZXjqIbr8AVXTGDCBiZ-5" value="&lt;font style=&quot;vertical-align: inherit;&quot;&gt;&lt;font style=&quot;vertical-align: inherit;&quot;&gt;SUELDO SEMANAL = HORAS TRABAJADAS * VALOR HORA&lt;/font&gt;&lt;/font&gt;" style="rounded=0;whiteSpace=wrap;html=1;fillColor=#dae8fc;strokeColor=#6c8ebf;" vertex="1" parent="1">
          <mxGeometry x="245" y="340" width="250" height="100" as="geometry" />
        </mxCell>
        <mxCell id="KIZXjqIbr8AVXTGDCBiZ-11" value="" style="edgeStyle=orthogonalEdgeStyle;rounded=0;orthogonalLoop=1;jettySize=auto;html=1;" edge="1" parent="1" source="KIZXjqIbr8AVXTGDCBiZ-6" target="KIZXjqIbr8AVXTGDCBiZ-2">
          <mxGeometry relative="1" as="geometry" />
        </mxCell>
        <mxCell id="KIZXjqIbr8AVXTGDCBiZ-6" value="&lt;font style=&quot;vertical-align: inherit;&quot;&gt;&lt;font style=&quot;vertical-align: inherit;&quot;&gt;&lt;font style=&quot;vertical-align: inherit;&quot;&gt;&lt;font style=&quot;vertical-align: inherit;&quot;&gt;SALARIO SEMANAL&lt;/font&gt;&lt;/font&gt;&lt;/font&gt;&lt;/font&gt;" style="shape=parallelogram;perimeter=parallelogramPerimeter;whiteSpace=wrap;html=1;fixedSize=1;fillColor=#d5e8d4;strokeColor=#82b366;" vertex="1" parent="1">
          <mxGeometry x="290" y="490" width="160" height="60" as="geometry" />
        </mxCell>
      </root>
    </mxGraphModel>
  </diagram>
</mxfile>
